# xmcd
#
# Track frame offsets: 
#        150
#        7370
#        23356
#        38140
#        54088
#        75337
#        77686
#        94176
#        108226
#        111011
#        129631
#        144855
#        162831
#        182817
#        200877
#        230105
#        247512
#        285760
#        293354
#
# Disc length: 4290 seconds
#
# Revision: 0
# Processed by: cddbd v1.5.1PL2 Copyright (c) Steve Scherf et al.
# Submitted via: ExactAudioCopy v0.95b3
#
DISCID=e610c013
DTITLE=Jarrod Birmingham - Live and Kickin'
DYEAR=2004
DGENRE=Country
TTITLE0=Introduction
TTITLE1=Rolling Thunder
TTITLE2=Honky Tonk All Night Long
TTITLE3=Bad Side Of Me
TTITLE4=Whiskey on The Rocks
TTITLE5=Ride Me Down Easy Intro
TTITLE6=Ride Me Down Easy
TTITLE7=All the Way to Waycross
TTITLE8=Copenhagen Circle Intro
TTITLE9=Copenhagen Circle
TTITLE10=Cadillac Cowboy
TTITLE11=Dick Whiskey
TTITLE12=Whiskey and Lies
TTITLE13=If That Ain't Country
TTITLE14=Wasted the Rest
TTITLE15=Best I Can
TTITLE16=236
TTITLE17=Get it On Intro
TTITLE18=Get it On
EXTD=
EXTT0=
EXTT1=
EXTT2=
EXTT3=
EXTT4=
EXTT5=
EXTT6=
EXTT7=
EXTT8=
EXTT9=
EXTT10=
EXTT11=
EXTT12=
EXTT13=
EXTT14=
EXTT15=
EXTT16=
EXTT17=
EXTT18=
PLAYORDER=
